<svg width="100" height="32" xmlns="http://www.w3.org/2000/svg" fill="none">
  <path id="svg_1" fill="#0A6987" d="m8.31543,20.49012c-1.4374,0 -2.7254,-0.233 -3.864,-0.7c-1.1387,-0.467 -2.0534,-1.157 -2.744,-2.072c-0.672,-0.9147 -1.0267,-2.016 -1.064,-3.304l5.096,0c0.0746,0.728 0.3266,1.288 0.756,1.68c0.4293,0.3733 0.9893,0.56 1.68,0.56c0.7093,0 1.2693,-0.1587 1.68,-0.476c0.4106,-0.336 0.616,-0.7933 0.616,-1.372c0,-0.4853 -0.168,-0.8867 -0.504,-1.204c-0.3174,-0.3173 -0.7187,-0.5787 -1.204,-0.784c-0.4667,-0.2053 -1.1387,-0.4387 -2.016,-0.7c-1.2694,-0.392 -2.3054,-0.784 -3.108,-1.176c-0.8027,-0.392 -1.4934,-0.9707 -2.072,-1.736c-0.5787,-0.7653 -0.868,-1.764 -0.868,-2.996c0,-1.8293 0.6626,-3.2573 1.988,-4.284c1.3253,-1.0453 3.052,-1.568 5.18,-1.568c2.1653,0 3.9106,0.5227 5.236,1.568c1.3253,1.0267 2.0346,2.464 2.128,4.312l-5.18,0c-0.0374,-0.6347 -0.2707,-1.1293 -0.7,-1.484c-0.4294,-0.3733 -0.98,-0.56 -1.6521,-0.56c-0.5786,0 -1.0453,0.1587 -1.3999,0.476c-0.3547,0.2987 -0.532,0.7373 -0.532,1.316c0,0.6347 0.2986,1.1293 0.8959,1.484c0.5974,0.3547 1.5307,0.7373 2.8001,1.148c1.2693,0.4293 2.296,0.84 3.08,1.232c0.8026,0.392 1.4933,0.9613 2.072,1.708c0.5786,0.7467 0.868,1.708 0.868,2.884c0,1.12 -0.2894,2.1373 -0.868,3.052c-0.56,0.915 -1.3814,1.643 -2.464,2.184c-1.0827,0.541 -2.3614,0.812 -3.836,0.812zm14.9025,-19.852l0,19.656l-4.788,0l0,-19.656l4.788,0zm16.5178,6.216c-0.3546,-0.6533 -0.868,-1.148 -1.54,-1.484c-0.6533,-0.3547 -1.428,-0.532 -2.324,-0.532c-1.5493,0 -2.7906,0.5133 -3.724,1.54c-0.9333,1.008 -1.4,2.3613 -1.4,4.06c0,1.8107 0.4854,3.2293 1.456,4.256c0.9894,1.008 2.3427,1.512 4.06,1.512c1.176,0 2.1654,-0.2987 2.968,-0.896c0.8214,-0.5973 1.4187,-1.456 1.792,-2.576l-6.076,0l0,-3.528l10.416,0l0,4.452c-0.3546,1.1947 -0.9613,2.3053 -1.82,3.332c-0.84,1.0267 -1.9133,1.857 -3.22,2.492c-1.3066,0.635 -2.7813,0.952 -4.424,0.952c-1.9413,0 -3.6773,-0.42 -5.208,-1.26c-1.512,-0.859 -2.6973,-2.044 -3.556,-3.556c-0.84,-1.512 -1.26,-3.2387 -1.26,-5.18c0,-1.9413 0.42,-3.668 1.26,-5.18c0.8587,-1.5307 2.044,-2.716 3.556,-3.556c1.512,-0.8587 3.2387,-1.288 5.18,-1.288c2.352,0 4.3307,0.5693 5.936,1.708c1.624,1.1387 2.6974,2.716 3.22,4.732l-5.292,0zm25.3042,-6.216l0,19.656l-4.788,0l0,-8.092l-7.448,0l0,8.092l-4.788,0l0,-19.656l4.788,0l0,7.7l7.448,0l0,-7.7l4.788,0zm17.5967,0l0,3.836l-5.2083,0l0,15.82l-4.788,0l0,-15.82l-5.208,0l0,-3.836l15.2043,0zm9.515,19.852c-1.438,0 -2.726,-0.233 -3.864,-0.7c-1.139,-0.467 -2.054,-1.157 -2.744,-2.072c-0.672,-0.9147 -1.027,-2.016 -1.064,-3.304l5.096,0c0.074,0.728 0.326,1.288 0.756,1.68c0.429,0.3733 0.989,0.56 1.68,0.56c0.709,0 1.269,-0.1587 1.68,-0.476c0.41,-0.336 0.616,-0.7933 0.616,-1.372c0,-0.4853 -0.168,-0.8867 -0.504,-1.204c-0.318,-0.3173 -0.719,-0.5787 -1.204,-0.784c-0.467,-0.2053 -1.139,-0.4387 -2.016,-0.7c-1.27,-0.392 -2.306,-0.784 -3.108,-1.176c-0.803,-0.392 -1.494,-0.9707 -2.072,-1.736c-0.579,-0.7653 -0.868,-1.764 -0.868,-2.996c0,-1.8293 0.662,-3.2573 1.988,-4.284c1.325,-1.0453 3.052,-1.568 5.18,-1.568c2.165,0 3.91,0.5227 5.236,1.568c1.325,1.0267 2.034,2.464 2.128,4.312l-5.18,0c-0.038,-0.6347 -0.271,-1.1293 -0.7,-1.484c-0.43,-0.3733 -0.98,-0.56 -1.652,-0.56c-0.579,0 -1.046,0.1587 -1.4,0.476c-0.355,0.2987 -0.532,0.7373 -0.532,1.316c0,0.6347 0.298,1.1293 0.896,1.484c0.597,0.3547 1.53,0.7373 2.8,1.148c1.269,0.4293 2.296,0.84 3.08,1.232c0.802,0.392 1.493,0.9613 2.072,1.708c0.578,0.7467 0.868,1.708 0.868,2.884c0,1.12 -0.29,2.1373 -0.868,3.052c-0.56,0.915 -1.382,1.643 -2.464,2.184c-1.083,0.541 -2.362,0.812 -3.836,0.812z"/>
  <path id="svg_2" fill="#6EABBE" d="m8.81943,25.71012l0,0.904l-1.488,0l0,4.68l-1.12,0l0,-4.68l-1.488,0l0,-0.904l4.096,0zm3.4091,5.64c-0.5226,0 -1.0026,-0.123 -1.44,-0.368c-0.4373,-0.245 -0.784,-0.584 -1.04,-1.016c-0.256,-0.437 -0.384,-0.931 -0.384,-1.48c0,-0.544 0.128,-1.032 0.384,-1.464c0.256,-0.437 0.6027,-0.779 1.04,-1.024c0.4374,-0.245 0.9174,-0.368 1.44,-0.368c0.528,0 1.008,0.123 1.44,0.368c0.4374,0.245 0.7814,0.587 1.032,1.024c0.256,0.432 0.384,0.92 0.384,1.464c0,0.549 -0.128,1.043 -0.384,1.48c-0.2506,0.432 -0.5946,0.771 -1.032,1.016c-0.4373,0.245 -0.9173,0.368 -1.44,0.368zm0,-1c0.336,0 0.632,-0.075 0.888,-0.224c0.256,-0.155 0.456,-0.373 0.6,-0.656c0.144,-0.283 0.216,-0.611 0.216,-0.984c0,-0.373 -0.072,-0.699 -0.216,-0.976c-0.144,-0.283 -0.344,-0.499 -0.6,-0.648c-0.256,-0.149 -0.552,-0.224 -0.888,-0.224c-0.336,0 -0.6346,0.075 -0.896,0.224c-0.256,0.149 -0.456,0.365 -0.6,0.648c-0.144,0.277 -0.216,0.603 -0.216,0.976c0,0.373 0.072,0.701 0.216,0.984c0.144,0.283 0.344,0.501 0.6,0.656c0.2614,0.149 0.56,0.224 0.896,0.224zm4.7933,-4.64l0,3.456c0,0.379 0.0987,0.669 0.296,0.872c0.1973,0.197 0.4747,0.296 0.832,0.296c0.3627,0 0.6427,-0.099 0.84,-0.296c0.1973,-0.203 0.296,-0.493 0.296,-0.872l0,-3.456l1.128,0l0,3.448c0,0.475 -0.104,0.877 -0.312,1.208c-0.2027,0.325 -0.4773,0.571 -0.824,0.736c-0.3413,0.165 -0.7227,0.248 -1.144,0.248c-0.416,0 -0.7947,-0.083 -1.136,-0.248c-0.336,-0.165 -0.6027,-0.411 -0.8,-0.736c-0.1973,-0.331 -0.296,-0.733 -0.296,-1.208l0,-3.448l1.12,0zm7.3541,5.584l-1.232,-2.176l-0.528,0l0,2.176l-1.12,0l0,-5.584l2.096,0c0.432,0 0.8,0.077 1.104,0.232c0.304,0.149 0.5307,0.355 0.68,0.616c0.1547,0.256 0.232,0.544 0.232,0.864c0,0.368 -0.1067,0.701 -0.32,1c-0.2133,0.293 -0.5307,0.496 -0.952,0.608l1.336,2.264l-1.296,0zm-1.76,-3.016l0.936,0c0.304,0 0.5307,-0.072 0.68,-0.216c0.1493,-0.149 0.224,-0.355 0.224,-0.616c0,-0.256 -0.0747,-0.453 -0.224,-0.592c-0.1493,-0.144 -0.376,-0.216 -0.68,-0.216l-0.936,0l0,1.64zm5.125,-2.568l0,5.584l-1.12,0l0,-5.584l1.12,0zm3.0346,5.64c-0.3894,0 -0.7414,-0.067 -1.056,-0.2c-0.3094,-0.133 -0.5547,-0.325 -0.736,-0.576c-0.1814,-0.251 -0.2747,-0.547 -0.28,-0.888l1.2,0c0.016,0.229 0.096,0.411 0.24,0.544c0.1493,0.133 0.352,0.2 0.608,0.2c0.2613,0 0.4666,-0.061 0.616,-0.184c0.1493,-0.128 0.224,-0.293 0.224,-0.496c0,-0.165 -0.0507,-0.301 -0.152,-0.408c-0.1014,-0.107 -0.2294,-0.189 -0.384,-0.248c-0.1494,-0.064 -0.3574,-0.133 -0.624,-0.208c-0.3627,-0.107 -0.6587,-0.211 -0.888,-0.312c-0.224,-0.107 -0.4187,-0.264 -0.584,-0.472c-0.16,-0.213 -0.24,-0.496 -0.24,-0.848c0,-0.331 0.0826,-0.619 0.248,-0.864c0.1653,-0.245 0.3973,-0.432 0.696,-0.56c0.2986,-0.133 0.64,-0.2 1.024,-0.2c0.576,0 1.0426,0.141 1.4,0.424c0.3626,0.277 0.5626,0.667 0.6,1.168l-1.232,0c-0.0107,-0.192 -0.0934,-0.349 -0.248,-0.472c-0.1494,-0.128 -0.3494,-0.192 -0.6,-0.192c-0.2187,0 -0.3947,0.056 -0.528,0.168c-0.128,0.112 -0.192,0.275 -0.192,0.488c0,0.149 0.048,0.275 0.144,0.376c0.1013,0.096 0.224,0.176 0.368,0.24c0.1493,0.059 0.3573,0.128 0.624,0.208c0.3626,0.107 0.6586,0.213 0.888,0.32c0.2293,0.107 0.4266,0.267 0.592,0.48c0.1653,0.213 0.248,0.493 0.248,0.84c0,0.299 -0.0774,0.576 -0.232,0.832c-0.1547,0.256 -0.3814,0.461 -0.68,0.616c-0.2987,0.149 -0.6534,0.224 -1.064,0.224zm6.747,-5.64l0,0.904l-1.488,0l0,4.68l-1.12,0l0,-4.68l-1.488,0l0,-0.904l4.096,0zm6.1474,4.52l-2.224,0l-0.368,1.064l-1.176,0l2.008,-5.592l1.304,0l2.008,5.592l-1.184,0l-0.368,-1.064zm-0.304,-0.896l-0.808,-2.336l-0.808,2.336l1.616,0zm6.4066,-3.624l0,0.904l-1.488,0l0,4.68l-1.12,0l0,-4.68l-1.488,0l0,-0.904l4.096,0zm4.6172,0l0,0.904l-1.488,0l0,4.68l-1.12,0l0,-4.68l-1.488,0l0,-0.904l4.096,0zm3.6972,5.584l-1.232,-2.176l-0.528,0l0,2.176l-1.12,0l0,-5.584l2.096,0c0.432,0 0.8,0.077 1.104,0.232c0.304,0.149 0.5306,0.355 0.68,0.616c0.1546,0.256 0.232,0.544 0.232,0.864c0,0.368 -0.1067,0.701 -0.32,1c-0.2134,0.293 -0.5307,0.496 -0.952,0.608l1.336,2.264l-1.296,0zm-1.76,-3.016l0.936,0c0.304,0 0.5306,-0.072 0.68,-0.216c0.1493,-0.149 0.224,-0.355 0.224,-0.616c0,-0.256 -0.0747,-0.453 -0.224,-0.592c-0.1494,-0.144 -0.376,-0.216 -0.68,-0.216l-0.936,0l0,1.64zm7.429,1.952l-2.224,0l-0.368,1.064l-1.176,0l2.008,-5.592l1.304,0l2.008,5.592l-1.184,0l-0.368,-1.064zm-0.304,-0.896l-0.808,-2.336l-0.8081,2.336l1.6161,0zm2.3345,-0.84c0,-0.549 0.1227,-1.04 0.368,-1.472c0.2507,-0.437 0.5893,-0.776 1.016,-1.016c0.432,-0.245 0.9147,-0.368 1.448,-0.368c0.624,0 1.1707,0.16 1.64,0.48c0.4693,0.32 0.7973,0.763 0.984,1.328l-1.288,0c-0.128,-0.267 -0.3093,-0.467 -0.544,-0.6c-0.2293,-0.133 -0.496,-0.2 -0.8,-0.2c-0.3253,0 -0.616,0.077 -0.872,0.232c-0.2507,0.149 -0.448,0.363 -0.592,0.64c-0.1387,0.277 -0.208,0.603 -0.208,0.976c0,0.368 0.0693,0.693 0.208,0.976c0.144,0.277 0.3413,0.493 0.592,0.648c0.256,0.149 0.5467,0.224 0.872,0.224c0.304,0 0.5707,-0.067 0.8,-0.2c0.2347,-0.139 0.416,-0.341 0.544,-0.608l1.288,0c-0.1867,0.571 -0.5147,1.016 -0.984,1.336c-0.464,0.315 -1.0107,0.472 -1.64,0.472c-0.5333,0 -1.016,-0.12 -1.448,-0.36c-0.4267,-0.245 -0.7653,-0.584 -1.016,-1.016c-0.2453,-0.432 -0.368,-0.923 -0.368,-1.472zm10.2126,-2.784l0,0.904l-1.488,0l0,4.68l-1.12,0l0,-4.68l-1.488,0l0,-0.904l4.096,0zm1.9372,0l0,5.584l-1.12,0l0,-5.584l1.12,0zm3.6984,5.64c-0.522,0 -1.0025,-0.123 -1.4398,-0.368c-0.4373,-0.245 -0.784,-0.584 -1.04,-1.016c-0.256,-0.437 -0.384,-0.931 -0.384,-1.48c0,-0.544 0.128,-1.032 0.384,-1.464c0.256,-0.437 0.6027,-0.779 1.04,-1.024c0.4373,-0.245 0.9178,-0.368 1.4398,-0.368c0.528,0 1.008,0.123 1.44,0.368c0.438,0.245 0.782,0.587 1.032,1.024c0.256,0.432 0.384,0.92 0.384,1.464c0,0.549 -0.128,1.043 -0.384,1.48c-0.25,0.432 -0.594,0.771 -1.032,1.016c-0.437,0.245 -0.917,0.368 -1.44,0.368zm0,-1c0.336,0 0.632,-0.075 0.888,-0.224c0.256,-0.155 0.456,-0.373 0.6,-0.656c0.144,-0.283 0.216,-0.611 0.216,-0.984c0,-0.373 -0.072,-0.699 -0.216,-0.976c-0.144,-0.283 -0.344,-0.499 -0.6,-0.648c-0.256,-0.149 -0.552,-0.224 -0.888,-0.224c-0.336,0 -0.634,0.075 -0.8958,0.224c-0.256,0.149 -0.456,0.365 -0.6,0.648c-0.144,0.277 -0.216,0.603 -0.216,0.976c0,0.373 0.072,0.701 0.216,0.984c0.144,0.283 0.344,0.501 0.6,0.656c0.2618,0.149 0.5598,0.224 0.8958,0.224zm8.465,0.944l-1.12,0l-2.536,-3.832l0,3.832l-1.12,0l0,-5.592l1.12,0l2.536,3.84l0,-3.84l1.12,0l0,5.592zm3.035,0.056c-0.389,0 -0.741,-0.067 -1.056,-0.2c-0.309,-0.133 -0.554,-0.325 -0.736,-0.576c-0.181,-0.251 -0.274,-0.547 -0.28,-0.888l1.2,0c0.016,0.229 0.096,0.411 0.24,0.544c0.15,0.133 0.352,0.2 0.608,0.2c0.262,0 0.467,-0.061 0.616,-0.184c0.15,-0.128 0.224,-0.293 0.224,-0.496c0,-0.165 -0.05,-0.301 -0.152,-0.408c-0.101,-0.107 -0.229,-0.189 -0.384,-0.248c-0.149,-0.064 -0.357,-0.133 -0.624,-0.208c-0.362,-0.107 -0.658,-0.211 -0.888,-0.312c-0.224,-0.107 -0.418,-0.264 -0.584,-0.472c-0.16,-0.213 -0.24,-0.496 -0.24,-0.848c0,-0.331 0.083,-0.619 0.248,-0.864c0.166,-0.245 0.398,-0.432 0.696,-0.56c0.299,-0.133 0.64,-0.2 1.024,-0.2c0.576,0 1.043,0.141 1.4,0.424c0.363,0.277 0.563,0.667 0.6,1.168l-1.232,0c-0.01,-0.192 -0.093,-0.349 -0.248,-0.472c-0.149,-0.128 -0.349,-0.192 -0.6,-0.192c-0.218,0 -0.394,0.056 -0.528,0.168c-0.128,0.112 -0.192,0.275 -0.192,0.488c0,0.149 0.048,0.275 0.144,0.376c0.102,0.096 0.224,0.176 0.368,0.24c0.15,0.059 0.358,0.128 0.624,0.208c0.363,0.107 0.659,0.213 0.888,0.32c0.23,0.107 0.427,0.267 0.592,0.48c0.166,0.213 0.248,0.493 0.248,0.84c0,0.299 -0.077,0.576 -0.232,0.832c-0.154,0.256 -0.381,0.461 -0.68,0.616c-0.298,0.149 -0.653,0.224 -1.064,0.224z"/>
</svg>