<svg width="140" height="140" viewBox="0 0 140 140" fill="none" xmlns="http://www.w3.org/2000/svg">
<g clip-path="url(#clip0_39_2)">
<circle cx="70" cy="70" r="70" fill="#94C1CF"/>
<g clip-path="url(#clip1_39_2)">
<circle cx="70" cy="70" r="65" fill="white"/>
<rect x="2" y="98" width="135" height="41" fill="#25B8E7"/>
<rect x="2" y="77" width="135" height="41" fill="#C0EDFB"/>
<path d="M27.3168 102.196C25.8794 102.196 24.5914 101.963 23.4528 101.496C22.3141 101.029 21.3994 100.339 20.7088 99.424C20.0368 98.5093 19.6821 97.408 19.6448 96.12H24.7408C24.8154 96.848 25.0674 97.408 25.4968 97.8C25.9261 98.1733 26.4861 98.36 27.1768 98.36C27.8861 98.36 28.4461 98.2013 28.8568 97.884C29.2674 97.548 29.4728 97.0907 29.4728 96.512C29.4728 96.0267 29.3048 95.6253 28.9688 95.308C28.6514 94.9907 28.2501 94.7293 27.7648 94.524C27.2981 94.3187 26.6261 94.0853 25.7488 93.824C24.4794 93.432 23.4434 93.04 22.6408 92.648C21.8381 92.256 21.1474 91.6773 20.5688 90.912C19.9901 90.1467 19.7008 89.148 19.7008 87.916C19.7008 86.0867 20.3634 84.6587 21.6888 83.632C23.0141 82.5867 24.7408 82.064 26.8688 82.064C29.0341 82.064 30.7794 82.5867 32.1048 83.632C33.4301 84.6587 34.1394 86.096 34.2328 87.944H29.0528C29.0154 87.3093 28.7821 86.8147 28.3528 86.46C27.9234 86.0867 27.3728 85.9 26.7007 85.9C26.1221 85.9 25.6554 86.0587 25.3008 86.376C24.9461 86.6747 24.7688 87.1133 24.7688 87.692C24.7688 88.3267 25.0674 88.8213 25.6647 89.176C26.2621 89.5307 27.1954 89.9133 28.4648 90.324C29.7341 90.7533 30.7608 91.164 31.5448 91.556C32.3474 91.948 33.0381 92.5173 33.6168 93.264C34.1954 94.0107 34.4848 94.972 34.4848 96.148C34.4848 97.268 34.1954 98.2853 33.6168 99.2C33.0568 100.115 32.2354 100.843 31.1528 101.384C30.0701 101.925 28.7914 102.196 27.3168 102.196ZM42.2193 82.344V102H37.4313V82.344H42.2193ZM58.7371 88.56C58.3825 87.9067 57.8691 87.412 57.1971 87.076C56.5438 86.7213 55.7691 86.544 54.8731 86.544C53.3238 86.544 52.0825 87.0573 51.1491 88.084C50.2158 89.092 49.7491 90.4453 49.7491 92.144C49.7491 93.9547 50.2345 95.3733 51.2051 96.4C52.1945 97.408 53.5478 97.912 55.2651 97.912C56.4411 97.912 57.4305 97.6133 58.2331 97.016C59.0545 96.4187 59.6518 95.56 60.0251 94.44H53.9491V90.912H64.3651V95.364C64.0105 96.5587 63.4038 97.6693 62.5451 98.696C61.7051 99.7227 60.6318 100.553 59.3251 101.188C58.0185 101.823 56.5438 102.14 54.9011 102.14C52.9598 102.14 51.2238 101.72 49.6931 100.88C48.1811 100.021 46.9958 98.836 46.1371 97.324C45.2971 95.812 44.8771 94.0853 44.8771 92.144C44.8771 90.2027 45.2971 88.476 46.1371 86.964C46.9958 85.4333 48.1811 84.248 49.6931 83.408C51.2051 82.5493 52.9318 82.12 54.8731 82.12C57.2251 82.12 59.2038 82.6893 60.8091 83.828C62.4331 84.9667 63.5065 86.544 64.0291 88.56H58.7371ZM84.0413 82.344V102H79.2533V93.908H71.8053V102H67.0173V82.344H71.8053V90.044H79.2533V82.344H84.0413ZM101.638 82.344V86.18H96.4297V102H91.6417V86.18H86.4337V82.344H101.638ZM111.153 102.196C109.715 102.196 108.427 101.963 107.289 101.496C106.15 101.029 105.235 100.339 104.545 99.424C103.873 98.5093 103.518 97.408 103.481 96.12H108.577C108.651 96.848 108.903 97.408 109.333 97.8C109.762 98.1733 110.322 98.36 111.013 98.36C111.722 98.36 112.282 98.2013 112.693 97.884C113.103 97.548 113.309 97.0907 113.309 96.512C113.309 96.0267 113.141 95.6253 112.805 95.308C112.487 94.9907 112.086 94.7293 111.601 94.524C111.134 94.3187 110.462 94.0853 109.585 93.824C108.315 93.432 107.279 93.04 106.477 92.648C105.674 92.256 104.983 91.6773 104.405 90.912C103.826 90.1467 103.537 89.148 103.537 87.916C103.537 86.0867 104.199 84.6587 105.525 83.632C106.85 82.5867 108.577 82.064 110.705 82.064C112.87 82.064 114.615 82.5867 115.941 83.632C117.266 84.6587 117.975 86.096 118.069 87.944H112.889C112.851 87.3093 112.618 86.8147 112.189 86.46C111.759 86.0867 111.209 85.9 110.537 85.9C109.958 85.9 109.491 86.0587 109.137 86.376C108.782 86.6747 108.605 87.1133 108.605 87.692C108.605 88.3267 108.903 88.8213 109.501 89.176C110.098 89.5307 111.031 89.9133 112.301 90.324C113.57 90.7533 114.597 91.164 115.381 91.556C116.183 91.948 116.874 92.5173 117.453 93.264C118.031 94.0107 118.321 94.972 118.321 96.148C118.321 97.268 118.031 98.2853 117.453 99.2C116.893 100.115 116.071 100.843 114.989 101.384C113.906 101.925 112.627 102.196 111.153 102.196Z" fill="#0A6987"/>
<path d="M27.8208 107.416V108.32H26.3328V113H25.2128V108.32H23.7248V107.416H27.8208ZM31.2299 113.056C30.7073 113.056 30.2273 112.933 29.7899 112.688C29.3526 112.443 29.0059 112.104 28.7499 111.672C28.4939 111.235 28.3659 110.741 28.3659 110.192C28.3659 109.648 28.4939 109.16 28.7499 108.728C29.0059 108.291 29.3526 107.949 29.7899 107.704C30.2273 107.459 30.7073 107.336 31.2299 107.336C31.7579 107.336 32.2379 107.459 32.6699 107.704C33.1073 107.949 33.4513 108.291 33.7019 108.728C33.9579 109.16 34.0859 109.648 34.0859 110.192C34.0859 110.741 33.9579 111.235 33.7019 111.672C33.4513 112.104 33.1073 112.443 32.6699 112.688C32.2326 112.933 31.7526 113.056 31.2299 113.056ZM31.2299 112.056C31.5659 112.056 31.8619 111.981 32.1179 111.832C32.3739 111.677 32.5739 111.459 32.7179 111.176C32.8619 110.893 32.9339 110.565 32.9339 110.192C32.9339 109.819 32.8619 109.493 32.7179 109.216C32.5739 108.933 32.3739 108.717 32.1179 108.568C31.8619 108.419 31.5659 108.344 31.2299 108.344C30.8939 108.344 30.5953 108.419 30.3339 108.568C30.0779 108.717 29.8779 108.933 29.7339 109.216C29.5899 109.493 29.5179 109.819 29.5179 110.192C29.5179 110.565 29.5899 110.893 29.7339 111.176C29.8779 111.459 30.0779 111.677 30.3339 111.832C30.5953 111.981 30.8939 112.056 31.2299 112.056ZM36.0232 107.416V110.872C36.0232 111.251 36.1219 111.541 36.3192 111.744C36.5165 111.941 36.7939 112.04 37.1512 112.04C37.5139 112.04 37.7939 111.941 37.9912 111.744C38.1885 111.541 38.2872 111.251 38.2872 110.872V107.416H39.4152V110.864C39.4152 111.339 39.3112 111.741 39.1032 112.072C38.9005 112.397 38.6259 112.643 38.2792 112.808C37.9379 112.973 37.5565 113.056 37.1352 113.056C36.7192 113.056 36.3405 112.973 35.9992 112.808C35.6632 112.643 35.3965 112.397 35.1992 112.072C35.0019 111.741 34.9032 111.339 34.9032 110.864V107.416H36.0232ZM43.3773 113L42.1453 110.824H41.6173V113H40.4973V107.416H42.5933C43.0253 107.416 43.3933 107.493 43.6973 107.648C44.0013 107.797 44.228 108.003 44.3773 108.264C44.532 108.52 44.6093 108.808 44.6093 109.128C44.6093 109.496 44.5026 109.829 44.2893 110.128C44.076 110.421 43.7586 110.624 43.3373 110.736L44.6733 113H43.3773ZM41.6173 109.984H42.5533C42.8573 109.984 43.084 109.912 43.2333 109.768C43.3826 109.619 43.4573 109.413 43.4573 109.152C43.4573 108.896 43.3826 108.699 43.2333 108.56C43.084 108.416 42.8573 108.344 42.5533 108.344H41.6173V109.984ZM46.7423 107.416V113H45.6223V107.416H46.7423ZM49.7769 113.056C49.3875 113.056 49.0355 112.989 48.7209 112.856C48.4115 112.723 48.1662 112.531 47.9849 112.28C47.8035 112.029 47.7102 111.733 47.7049 111.392H48.9049C48.9209 111.621 49.0009 111.803 49.1449 111.936C49.2942 112.069 49.4969 112.136 49.7529 112.136C50.0142 112.136 50.2195 112.075 50.3689 111.952C50.5182 111.824 50.5929 111.659 50.5929 111.456C50.5929 111.291 50.5422 111.155 50.4409 111.048C50.3395 110.941 50.2115 110.859 50.0569 110.8C49.9075 110.736 49.6995 110.667 49.4329 110.592C49.0702 110.485 48.7742 110.381 48.5449 110.28C48.3209 110.173 48.1262 110.016 47.9609 109.808C47.8009 109.595 47.7209 109.312 47.7209 108.96C47.7209 108.629 47.8035 108.341 47.9689 108.096C48.1342 107.851 48.3662 107.664 48.6649 107.536C48.9635 107.403 49.3049 107.336 49.6889 107.336C50.2649 107.336 50.7315 107.477 51.0889 107.76C51.4515 108.037 51.6515 108.427 51.6889 108.928H50.4569C50.4462 108.736 50.3635 108.579 50.2089 108.456C50.0595 108.328 49.8595 108.264 49.6089 108.264C49.3902 108.264 49.2142 108.32 49.0809 108.432C48.9529 108.544 48.8889 108.707 48.8889 108.92C48.8889 109.069 48.9369 109.195 49.0329 109.296C49.1342 109.392 49.2569 109.472 49.4009 109.536C49.5502 109.595 49.7582 109.664 50.0249 109.744C50.3875 109.851 50.6835 109.957 50.9129 110.064C51.1422 110.171 51.3395 110.331 51.5049 110.544C51.6702 110.757 51.7529 111.037 51.7529 111.384C51.7529 111.683 51.6755 111.96 51.5209 112.216C51.3662 112.472 51.1395 112.677 50.8409 112.832C50.5422 112.981 50.1875 113.056 49.7769 113.056ZM56.5239 107.416V108.32H55.0359V113H53.9159V108.32H52.4279V107.416H56.5239ZM62.6713 111.936H60.4473L60.0793 113H58.9033L60.9113 107.408H62.2153L64.2233 113H63.0393L62.6713 111.936ZM62.3673 111.04L61.5593 108.704L60.7513 111.04H62.3673ZM68.7739 107.416V108.32H67.2859V113H66.1659V108.32H64.6779V107.416H68.7739ZM73.3911 107.416V108.32H71.9031V113H70.7831V108.32H69.2951V107.416H73.3911ZM77.0883 113L75.8563 110.824H75.3283V113H74.2083V107.416H76.3043C76.7363 107.416 77.1043 107.493 77.4083 107.648C77.7123 107.797 77.9389 108.003 78.0883 108.264C78.2429 108.52 78.3203 108.808 78.3203 109.128C78.3203 109.496 78.2136 109.829 78.0003 110.128C77.7869 110.421 77.4696 110.624 77.0483 110.736L78.3843 113H77.0883ZM75.3283 109.984H76.2643C76.5683 109.984 76.7949 109.912 76.9443 109.768C77.0936 109.619 77.1683 109.413 77.1683 109.152C77.1683 108.896 77.0936 108.699 76.9443 108.56C76.7949 108.416 76.5683 108.344 76.2643 108.344H75.3283V109.984ZM82.7573 111.936H80.5333L80.1653 113H78.9893L80.9973 107.408H82.3013L84.3093 113H83.1253L82.7573 111.936ZM82.4533 111.04L81.6453 108.704L80.8372 111.04H82.4533ZM84.7878 110.2C84.7878 109.651 84.9105 109.16 85.1558 108.728C85.4065 108.291 85.7451 107.952 86.1718 107.712C86.6038 107.467 87.0865 107.344 87.6198 107.344C88.2438 107.344 88.7905 107.504 89.2598 107.824C89.7291 108.144 90.0571 108.587 90.2438 109.152H88.9558C88.8278 108.885 88.6465 108.685 88.4118 108.552C88.1825 108.419 87.9158 108.352 87.6118 108.352C87.2865 108.352 86.9958 108.429 86.7398 108.584C86.4891 108.733 86.2918 108.947 86.1478 109.224C86.0091 109.501 85.9398 109.827 85.9398 110.2C85.9398 110.568 86.0091 110.893 86.1478 111.176C86.2918 111.453 86.4891 111.669 86.7398 111.824C86.9958 111.973 87.2865 112.048 87.6118 112.048C87.9158 112.048 88.1825 111.981 88.4118 111.848C88.6465 111.709 88.8278 111.507 88.9558 111.24H90.2438C90.0571 111.811 89.7291 112.256 89.2598 112.576C88.7958 112.891 88.2491 113.048 87.6198 113.048C87.0865 113.048 86.6038 112.928 86.1718 112.688C85.7451 112.443 85.4065 112.104 85.1558 111.672C84.9105 111.24 84.7878 110.749 84.7878 110.2ZM95.0004 107.416V108.32H93.5124V113H92.3924V108.32H90.9044V107.416H95.0004ZM96.9376 107.416V113H95.8176V107.416H96.9376ZM100.636 113.056C100.114 113.056 99.6335 112.933 99.1962 112.688C98.7589 112.443 98.4122 112.104 98.1562 111.672C97.9002 111.235 97.7722 110.741 97.7722 110.192C97.7722 109.648 97.9002 109.16 98.1562 108.728C98.4122 108.291 98.7589 107.949 99.1962 107.704C99.6335 107.459 100.114 107.336 100.636 107.336C101.164 107.336 101.644 107.459 102.076 107.704C102.514 107.949 102.858 108.291 103.108 108.728C103.364 109.16 103.492 109.648 103.492 110.192C103.492 110.741 103.364 111.235 103.108 111.672C102.858 112.104 102.514 112.443 102.076 112.688C101.639 112.933 101.159 113.056 100.636 113.056ZM100.636 112.056C100.972 112.056 101.268 111.981 101.524 111.832C101.78 111.677 101.98 111.459 102.124 111.176C102.268 110.893 102.34 110.565 102.34 110.192C102.34 109.819 102.268 109.493 102.124 109.216C101.98 108.933 101.78 108.717 101.524 108.568C101.268 108.419 100.972 108.344 100.636 108.344C100.3 108.344 100.002 108.419 99.7402 108.568C99.4842 108.717 99.2842 108.933 99.1402 109.216C98.9962 109.493 98.9242 109.819 98.9242 110.192C98.9242 110.565 98.9962 110.893 99.1402 111.176C99.2842 111.459 99.4842 111.677 99.7402 111.832C100.002 111.981 100.3 112.056 100.636 112.056ZM109.101 113H107.981L105.445 109.168V113H104.325V107.408H105.445L107.981 111.248V107.408H109.101V113ZM112.136 113.056C111.747 113.056 111.395 112.989 111.08 112.856C110.771 112.723 110.526 112.531 110.344 112.28C110.163 112.029 110.07 111.733 110.064 111.392H111.264C111.28 111.621 111.36 111.803 111.504 111.936C111.654 112.069 111.856 112.136 112.112 112.136C112.374 112.136 112.579 112.075 112.728 111.952C112.878 111.824 112.952 111.659 112.952 111.456C112.952 111.291 112.902 111.155 112.8 111.048C112.699 110.941 112.571 110.859 112.416 110.8C112.267 110.736 112.059 110.667 111.792 110.592C111.43 110.485 111.134 110.381 110.904 110.28C110.68 110.173 110.486 110.016 110.32 109.808C110.16 109.595 110.08 109.312 110.08 108.96C110.08 108.629 110.163 108.341 110.328 108.096C110.494 107.851 110.726 107.664 111.024 107.536C111.323 107.403 111.664 107.336 112.048 107.336C112.624 107.336 113.091 107.477 113.448 107.76C113.811 108.037 114.011 108.427 114.048 108.928H112.816C112.806 108.736 112.723 108.579 112.568 108.456C112.419 108.328 112.219 108.264 111.968 108.264C111.75 108.264 111.574 108.32 111.44 108.432C111.312 108.544 111.248 108.707 111.248 108.92C111.248 109.069 111.296 109.195 111.392 109.296C111.494 109.392 111.616 109.472 111.76 109.536C111.91 109.595 112.118 109.664 112.384 109.744C112.747 109.851 113.043 109.957 113.272 110.064C113.502 110.171 113.699 110.331 113.864 110.544C114.03 110.757 114.112 111.037 114.112 111.384C114.112 111.683 114.035 111.96 113.88 112.216C113.726 112.472 113.499 112.677 113.2 112.832C112.902 112.981 112.547 113.056 112.136 113.056Z" fill="#6EABBE"/>
<path d="M30.3883 32.1818L54.9734 78H5.80332L30.3883 32.1818Z" fill="#94D8EE"/>
<path d="M103.67 20.5455L133.401 78.3637H73.9391L103.67 20.5455Z" fill="#ABD9D1"/>
<path d="M68.6262 6L108.03 78H29.2221L68.6262 6Z" fill="#C5E0DC"/>
</g>
</g>
<defs>
<clipPath id="clip0_39_2">
<rect width="140" height="140" fill="white"/>
</clipPath>
<clipPath id="clip1_39_2">
<rect x="5" y="5" width="130" height="130" rx="65" fill="white"/>
</clipPath>
</defs>
</svg>
